<svg xmlns="http://www.w3.org/2000/svg" width="55" height="41" viewBox="0 0 55 41">
  <g fill="none" fill-rule="evenodd">
    <path fill="#536DFE" d="M4.144 23.174h.96l-3.6 4.216-.882-.975a3.961 3.961 0 0 1-.055-.062l2.687-3.147c.28-.021.578-.032.89-.032zm-3.195.597L0 24.882c.073-.442.4-.822.95-1.111zm5.979-.597H8.75L3.38 29.46l-.938-1.035 4.486-5.252zm3.645 0h1.823l-7.14 8.36-.938-1.037 6.255-7.323zm3.646 0h1.823l-8.91 10.431-.937-1.036 8.024-9.395zm3.645 0h1.823L9.01 35.677l-.938-1.036 9.793-11.467zm3.646 0h1.823L10.885 37.749l-.938-1.036 11.563-13.54zm5.29.21L13.164 39.348c-.447-.22-.858-.455-1.222-.703l13.193-15.448c.55.032 1.108.095 1.665.185zm1.547.322c.497.126.983.272 1.451.435l-13.87 16.24c-.491-.135-.97-.29-1.43-.46l13.85-16.215zm2.808.98c.451.21.871.435 1.25.672l-13.316 15.59a16.888 16.888 0 0 1-1.636-.219l13.702-16.042zm2.351 1.516c.073.07.142.141.207.213l.738.815L22.691 41h-1.823l12.638-14.798zm1.883 2.064l.938 1.036L26.337 41h-1.823l10.875-12.734zm1.876 2.072l.938 1.036L29.982 41h-1.823l9.106-10.662zm1.876 2.072l.938 1.036L33.628 41h-1.823l7.336-8.59zm1.876 2.072l.939 1.036L37.273 41H35.45l5.567-6.518zm1.877 2.071l.938 1.036-2.906 3.403c-.15.005-.305.008-.463.008h-1.367l3.798-4.447zm1.7 2.278c.167.8-.405 1.458-1.564 1.831l1.564-1.831z"/>
    <path fill="#FF6F00" d="M9.347 10.696h20.17c3.565 0 7.768 1.45 9.388 3.24l10.27 11.345c1.62 1.79.043 3.24-3.522 3.24h-20.17c-3.565 0-7.768-1.45-9.388-3.24L5.825 13.937c-1.62-1.79-.043-3.241 3.522-3.241z" style="mix-blend-mode:multiply"/>
    <path fill="#304FFE" d="M14.535 0h20.17c3.565 0 7.769 1.451 9.39 3.241l10.268 11.344c1.62 1.79.044 3.241-3.52 3.241H30.671c-3.565 0-7.768-1.451-9.389-3.241L11.015 3.241C9.395 1.451 10.97 0 14.535 0z" style="mix-blend-mode:multiply"/>
  </g>
</svg>
