<?xml version="1.0" encoding="UTF-8"?>
<svg width="40px" height="40px" viewBox="0 0 40 40" version="1.1" xmlns="http://www.w3.org/2000/svg" xmlns:xlink="http://www.w3.org/1999/xlink">
    <!-- Generator: sketchtool 50.2 (55047) - http://www.bohemiancoding.com/sketch -->
    <title>4BFD34E0-9593-4D01-8885-D825F7329169</title>
    <desc>Created with sketchtool.</desc>
    <defs>
        <path d="M15,30 C18.5617777,30 21.8336065,28.7585817 24.4064075,26.6848243 C24.4064075,26.6848243 25.2017857,27.7898829 26.7925422,30 C27.4930685,26.9081769 27.6898384,24.6607279 27.382852,23.257653 C27.2307341,22.5624016 28.5247664,23.2979159 31.2649487,25.4641957 C31.2480426,18.8410133 30.6291661,14.237874 29.4083193,11.6547779 C25.0282706,2.38736936 17.1323068,0 15,0 C6.71572875,0 0,6.71572875 0,15 C0,23.2842712 6.71572875,30 15,30 Z" id="path-1"></path>
    </defs>
    <g id="Symbols" stroke="none" stroke-width="1" fill="none" fill-rule="evenodd">
        <g id="App-layouts-/-Primary-navigation-/-Default" transform="translate(-1116.000000, -12.000000)">
            <g id="Avatar/Bird/Black" transform="translate(1116.000000, 12.000000)">
                <g id="Group-4">
                    <g id="Group-2">
                        <circle id="Oval" fill="#EEEEEE" cx="20" cy="20" r="20"></circle>
                        <g id="Group" transform="translate(0.000000, 5.000000)">
                            <circle id="Oval-4" fill="#212121" cx="20" cy="15" r="15"></circle>
                            <g id="Oval-5" transform="translate(5.000000, 0.000000)">
                                <mask id="mask-2" fill="white">
                                    <use xlink:href="#path-1"></use>
                                </mask>
                                <use id="Mask" fill="#424242" xlink:href="#path-1"></use>
                                <path d="M15,30 C18.5617777,30 21.8336065,28.7585817 24.4064075,26.6848243 C24.4064075,26.6848243 26.2709383,27.7898829 30,30 C30,21.5229954 30,16.5229954 30,15 C30,6.71572875 23.2842712,0 15,0 C6.71572875,0 0,6.71572875 0,15 C0,23.2842712 6.71572875,30 15,30 Z" id="Mask" fill="#212121" mask="url(#mask-2)"></path>
                                <path d="M0,25 C3.68189833,25 6.82443873,20.6723886 9.4276212,12.0171658 C6.82443873,14.0057219 3.68189833,15 0,15 C-5.5228475,15 -10,9.4771525 -10,15 C-10,20.5228475 -5.5228475,25 0,25 Z" fill="#757575" mask="url(#mask-2)"></path>
                                <path d="M3.55271368e-15,8.81326132 C3.68189833,8.81326132 6.82443873,9.88122948 9.4276212,12.0171658 C6.82443873,14.0057219 3.68189833,15 3.55271368e-15,15 C-5.5228475,15 -5.5228475,8.81326132 3.55271368e-15,8.81326132 Z" fill="#424242" mask="url(#mask-2)"></path>
                                <circle id="Oval-6" fill="#E0E0E0" mask="url(#mask-2)" cx="9.64285714" cy="11.7857143" r="1.07142857"></circle>
                            </g>
                            <polygon id="Rectangle" fill="#E65100" transform="translate(4.903612, 14.302112) rotate(-315.000000) translate(-4.903612, -14.302112) " points="7.87495151 11.330773 7.44781228 14.2770415 1.9322731 17.2734514"></polygon>
                            <path d="M9.28571429,14.2857143 C9.28571429,11.9187796 7.36693464,10 5,10 C2.63306536,10 0.714285714,11.9187796 0.714285714,14.2857143 C9.28571429,14.2857143 0.714285714,14.2857143 9.28571429,14.2857143 Z" id="Oval-2" fill="#F57F17"></path>
                        </g>
                    </g>
                </g>
            </g>
        </g>
    </g>
</svg>